<svg xmlns="http://www.w3.org/2000/svg" width="1440" height="900"><path d="M755,423L777,341L652,335Z" fill="#79b5d9" stroke="#79b5d9" stroke-width="1.51"/><path d="M652,335L676,473L755,423Z" fill="#75b3d8" stroke="#75b3d8" stroke-width="1.51"/><path d="M777,341L693,253L652,335Z" fill="#84bbdc" stroke="#84bbdc" stroke-width="1.51"/><path d="M777,341L761,222L693,253Z" fill="#86bbdc" stroke="#86bbdc" stroke-width="1.51"/><path d="M755,423L874,322L777,341Z" fill="#73b0d6" stroke="#73b0d6" stroke-width="1.51"/><path d="M777,341L874,322L761,222Z" fill="#7fb6d9" stroke="#7fb6d9" stroke-width="1.51"/><path d="M652,335L542,434L676,473Z" fill="#7db7da" stroke="#7db7da" stroke-width="1.51"/><path d="M519,317L542,434L652,335Z" fill="#8bbedd" stroke="#8bbedd" stroke-width="1.51"/><path d="M799,588L903,480L755,423Z" fill="#5ea4d0" stroke="#5ea4d0" stroke-width="1.51"/><path d="M755,423L903,480L874,322Z" fill="#68aad3" stroke="#68aad3" stroke-width="1.51"/><path d="M542,434L631,535L676,473Z" fill="#74b1d7" stroke="#74b1d7" stroke-width="1.51"/><path d="M577,212L519,317L652,335Z" fill="#95c4df" stroke="#95c4df" stroke-width="1.51"/><path d="M577,212L652,335L693,253Z" fill="#91c2df" stroke="#91c2df" stroke-width="1.51"/><path d="M696,138L577,212L693,253Z" fill="#98c5e1" stroke="#98c5e1" stroke-width="1.51"/><path d="M799,588L755,423L676,473Z" fill="#64a8d2" stroke="#64a8d2" stroke-width="1.51"/><path d="M761,222L696,138L693,253Z" fill="#92c0e0" stroke="#92c0e0" stroke-width="1.51"/><path d="M760,137L696,138L761,222Z" fill="#95c2e1" stroke="#95c2e1" stroke-width="1.51"/><path d="M908,221L760,137L761,222Z" fill="#8cbcdd" stroke="#8cbcdd" stroke-width="1.51"/><path d="M631,535L799,588L676,473Z" fill="#63a7d3" stroke="#63a7d3" stroke-width="1.51"/><path d="M874,322L908,221L761,222Z" fill="#81b6d9" stroke="#81b6d9" stroke-width="1.51"/><path d="M977,336L908,221L874,322Z" fill="#77b0d5" stroke="#77b0d5" stroke-width="1.51"/><path d="M542,434L548,550L631,535Z" fill="#76b2d7" stroke="#76b2d7" stroke-width="1.51"/><path d="M660,705L792,654L799,588Z" fill="#5299cb" stroke="#5299cb" stroke-width="1.51"/><path d="M445,443L548,550L542,434Z" fill="#80b8da" stroke="#80b8da" stroke-width="1.51"/><path d="M519,317L445,443L542,434Z" fill="#8cbfdd" stroke="#8cbfdd" stroke-width="1.51"/><path d="M453,227L458,306L519,317Z" fill="#a0cbe2" stroke="#a0cbe2" stroke-width="1.51"/><path d="M903,480L977,336L874,322Z" fill="#68a8d2" stroke="#68a8d2" stroke-width="1.51"/><path d="M903,480L1008,418L977,336Z" fill="#5fa2cf" stroke="#5fa2cf" stroke-width="1.51"/><path d="M799,588L876,585L903,480Z" fill="#539ccc" stroke="#539ccc" stroke-width="1.51"/><path d="M458,306L445,443L519,317Z" fill="#96c5e0" stroke="#96c5e0" stroke-width="1.51"/><path d="M577,212L453,227L519,317Z" fill="#a0cae2" stroke="#a0cae2" stroke-width="1.51"/><path d="M458,306L341,348L445,443Z" fill="#99c6e1" stroke="#99c6e1" stroke-width="1.51"/><path d="M436,116L453,227L577,212Z" fill="#accfe5" stroke="#accfe5" stroke-width="1.51"/><path d="M799,588L792,654L876,585Z" fill="#4f99ca" stroke="#4f99ca" stroke-width="1.51"/><path d="M660,705L799,588L631,535Z" fill="#5ba1cf" stroke="#5ba1cf" stroke-width="1.51"/><path d="M980,584L1008,418L903,480Z" fill="#519bcb" stroke="#519bcb" stroke-width="1.51"/><path d="M908,221L918,120L760,137Z" fill="#8dbadd" stroke="#8dbadd" stroke-width="1.51"/><path d="M977,336L975,219L908,221Z" fill="#79afd5" stroke="#79afd5" stroke-width="1.51"/><path d="M1117,323L975,219L977,336Z" fill="#71a8d1" stroke="#71a8d1" stroke-width="1.51"/><path d="M975,219L918,120L908,221Z" fill="#84b4d9" stroke="#84b4d9" stroke-width="1.51"/><path d="M668,-10L577,69L696,138Z" fill="#a8cce6" stroke="#a8cce6" stroke-width="1.51"/><path d="M696,138L577,69L577,212Z" fill="#a4cae4" stroke="#a4cae4" stroke-width="1.51"/><path d="M767,20L696,138L760,137Z" fill="#9cc5e3" stroke="#9cc5e3" stroke-width="1.51"/><path d="M548,550L660,705L631,535Z" fill="#67a7d1" stroke="#67a7d1" stroke-width="1.51"/><path d="M546,711L660,705L548,550Z" fill="#66a3cf" stroke="#66a3cf" stroke-width="1.51"/><path d="M876,585L980,584L903,480Z" fill="#4d99ca" stroke="#4d99ca" stroke-width="1.51"/><path d="M892,662L980,584L876,585Z" fill="#4694c7" stroke="#4694c7" stroke-width="1.51"/><path d="M892,662L876,585L792,654Z" fill="#4a95c8" stroke="#4a95c8" stroke-width="1.51"/><path d="M912,781L892,662L792,654Z" fill="#438dc4" stroke="#438dc4" stroke-width="1.51"/><path d="M918,120L767,20L760,137Z" fill="#97c0e0" stroke="#97c0e0" stroke-width="1.51"/><path d="M445,443L423,587L548,550Z" fill="#7fb5d8" stroke="#7fb5d8" stroke-width="1.51"/><path d="M342,459L423,587L445,443Z" fill="#89bbdc" stroke="#89bbdc" stroke-width="1.51"/><path d="M334,218L341,348L458,306Z" fill="#a8cee4" stroke="#a8cee4" stroke-width="1.51"/><path d="M334,218L458,306L453,227Z" fill="#aacfe6" stroke="#aacfe6" stroke-width="1.51"/><path d="M577,69L436,116L577,212Z" fill="#aed0e7" stroke="#aed0e7" stroke-width="1.51"/><path d="M767,20L668,-10L696,138Z" fill="#a3c9e5" stroke="#a3c9e5" stroke-width="1.51"/><path d="M577,69L517,-6L436,116Z" fill="#b6d4e9" stroke="#b6d4e9" stroke-width="1.51"/><path d="M448,677L546,711L548,550Z" fill="#6fa8d1" stroke="#6fa8d1" stroke-width="1.51"/><path d="M341,348L342,459L445,443Z" fill="#96c3e0" stroke="#96c3e0" stroke-width="1.51"/><path d="M918,120L908,-32L767,20Z" fill="#99c0e0" stroke="#99c0e0" stroke-width="1.51"/><path d="M975,219L1005,113L918,120Z" fill="#87b4d9" stroke="#87b4d9" stroke-width="1.51"/><path d="M1103,194L1005,113L975,219Z" fill="#81aed6" stroke="#81aed6" stroke-width="1.51"/><path d="M1008,418L1117,323L977,336Z" fill="#65a1ce" stroke="#65a1ce" stroke-width="1.51"/><path d="M1146,473L1117,323L1008,418Z" fill="#5a99cb" stroke="#5a99cb" stroke-width="1.51"/><path d="M423,587L448,677L548,550Z" fill="#76afd4" stroke="#76afd4" stroke-width="1.51"/><path d="M285,669L448,677L423,587Z" fill="#7cadd5" stroke="#7cadd5" stroke-width="1.51"/><path d="M234,558L316,557L342,459Z" fill="#90bcde" stroke="#90bcde" stroke-width="1.51"/><path d="M436,116L334,218L453,227Z" fill="#b3d3e8" stroke="#b3d3e8" stroke-width="1.51"/><path d="M668,-10L517,-6L577,69Z" fill="#b2d2e8" stroke="#b2d2e8" stroke-width="1.51"/><path d="M436,116L296,118L334,218Z" fill="#bcd6eb" stroke="#bcd6eb" stroke-width="1.51"/><path d="M980,584L1146,473L1008,418Z" fill="#4d95c9" stroke="#4d95c9" stroke-width="1.51"/><path d="M892,662L1010,674L980,584Z" fill="#3f8dc4" stroke="#3f8dc4" stroke-width="1.51"/><path d="M912,781L1010,674L892,662Z" fill="#3b88c2" stroke="#3b88c2" stroke-width="1.51"/><path d="M1117,323L1103,194L975,219Z" fill="#76a7d2" stroke="#76a7d2" stroke-width="1.51"/><path d="M660,705L771,829L792,654Z" fill="#4d92c7" stroke="#4d92c7" stroke-width="1.51"/><path d="M546,711L656,801L660,705Z" fill="#5b98ca" stroke="#5b98ca" stroke-width="1.51"/><path d="M547,807L656,801L546,711Z" fill="#5d96c9" stroke="#5d96c9" stroke-width="1.51"/><path d="M205,448L342,459L341,348Z" fill="#9cc6e2" stroke="#9cc6e2" stroke-width="1.51"/><path d="M342,459L316,557L423,587Z" fill="#89b9db" stroke="#89b9db" stroke-width="1.51"/><path d="M995,-15L918,120L1005,113Z" fill="#8eb7db" stroke="#8eb7db" stroke-width="1.51"/><path d="M995,-15L908,-32L918,120Z" fill="#94bcde" stroke="#94bcde" stroke-width="1.51"/><path d="M767,20L688,-124L668,-10Z" fill="#aacde8" stroke="#aacde8" stroke-width="1.51"/><path d="M668,-10L575,-98L517,-6Z" fill="#b6d5ea" stroke="#b6d5ea" stroke-width="1.51"/><path d="M1140,586L1146,473L980,584Z" fill="#438dc4" stroke="#438dc4" stroke-width="1.51"/><path d="M1209,228L1128,129L1103,194Z" fill="#7aa4d2" stroke="#7aa4d2" stroke-width="1.51"/><path d="M771,829L912,781L792,654Z" fill="#428ac3" stroke="#428ac3" stroke-width="1.51"/><path d="M656,801L771,829L660,705Z" fill="#4f8fc5" stroke="#4f8fc5" stroke-width="1.51"/><path d="M465,786L546,711L448,677Z" fill="#6da1ce" stroke="#6da1ce" stroke-width="1.51"/><path d="M465,786L547,807L546,711Z" fill="#669acb" stroke="#669acb" stroke-width="1.51"/><path d="M673,940L796,916L771,829Z" fill="#4480ba" stroke="#4480ba" stroke-width="1.51"/><path d="M1107,0L995,-15L1005,113Z" fill="#8eb4da" stroke="#8eb4da" stroke-width="1.51"/><path d="M1103,194L1128,129L1005,113Z" fill="#83abd6" stroke="#83abd6" stroke-width="1.51"/><path d="M1209,228L1103,194L1117,323Z" fill="#71a1cf" stroke="#71a1cf" stroke-width="1.51"/><path d="M1010,674L1140,586L980,584Z" fill="#3c8bc2" stroke="#3c8bc2" stroke-width="1.51"/><path d="M1109,692L1140,586L1010,674Z" fill="#3683bf" stroke="#3683bf" stroke-width="1.51"/><path d="M402,-19L296,118L436,116Z" fill="#c1d9ed" stroke="#c1d9ed" stroke-width="1.51"/><path d="M688,-124L575,-98L668,-10Z" fill="#b3d3ea" stroke="#b3d3ea" stroke-width="1.51"/><path d="M688,-124L767,20L807,-138Z" fill="#aacde7" stroke="#aacde7" stroke-width="1.51"/><path d="M402,-19L436,116L517,-6Z" fill="#bed9eb" stroke="#bed9eb" stroke-width="1.51"/><path d="M334,218L226,217L341,348Z" fill="#b3d2e8" stroke="#b3d2e8" stroke-width="1.51"/><path d="M302,810L465,786L448,677Z" fill="#72a0ce" stroke="#72a0ce" stroke-width="1.51"/><path d="M807,-138L767,20L908,-32Z" fill="#a2c6e4" stroke="#a2c6e4" stroke-width="1.51"/><path d="M461,-117L402,-19L517,-6Z" fill="#c3dced" stroke="#c3dced" stroke-width="1.51"/><path d="M912,781L1015,778L1010,674Z" fill="#3482be" stroke="#3482be" stroke-width="1.51"/><path d="M986,897L1015,778L912,781Z" fill="#307ab8" stroke="#307ab8" stroke-width="1.51"/><path d="M296,118L226,217L334,218Z" fill="#bed8eb" stroke="#bed8eb" stroke-width="1.51"/><path d="M1015,778L1109,692L1010,674Z" fill="#3280bd" stroke="#3280bd" stroke-width="1.51"/><path d="M197,359L205,448L341,348Z" fill="#a5cae5" stroke="#a5cae5" stroke-width="1.51"/><path d="M316,557L285,669L423,587Z" fill="#83b3d8" stroke="#83b3d8" stroke-width="1.51"/><path d="M881,-141L807,-138L908,-32Z" fill="#a3c7e4" stroke="#a3c7e4" stroke-width="1.51"/><path d="M1246,358L1209,228L1117,323Z" fill="#679bca" stroke="#679bca" stroke-width="1.51"/><path d="M1246,358L1117,323L1146,473Z" fill="#5995c9" stroke="#5995c9" stroke-width="1.51"/><path d="M205,448L234,558L342,459Z" fill="#97c1e1" stroke="#97c1e1" stroke-width="1.51"/><path d="M226,217L197,359L341,348Z" fill="#b0d1e7" stroke="#b0d1e7" stroke-width="1.51"/><path d="M234,558L285,669L316,557Z" fill="#8ab6db" stroke="#8ab6db" stroke-width="1.51"/><path d="M1263,472L1146,473L1140,586Z" fill="#438ac3" stroke="#438ac3" stroke-width="1.51"/><path d="M1263,472L1246,358L1146,473Z" fill="#4e8ec4" stroke="#4e8ec4" stroke-width="1.51"/><path d="M1004,-161L881,-141L908,-32Z" fill="#a0c3e1" stroke="#a0c3e1" stroke-width="1.51"/><path d="M1004,-161L908,-32L995,-15Z" fill="#9abedf" stroke="#9abedf" stroke-width="1.51"/><path d="M1128,129L1107,0L1005,113Z" fill="#88aed7" stroke="#88aed7" stroke-width="1.51"/><path d="M1215,-30L1107,0L1128,129Z" fill="#89abd6" stroke="#89abd6" stroke-width="1.51"/><path d="M575,-98L461,-117L517,-6Z" fill="#c0dbec" stroke="#c0dbec" stroke-width="1.51"/><path d="M402,-19L304,-10L296,118Z" fill="#c8ddef" stroke="#c8ddef" stroke-width="1.51"/><path d="M296,118L183,110L226,217Z" fill="#c6dbef" stroke="#c6dbef" stroke-width="1.51"/><path d="M688,-124L461,-117L575,-98Z" fill="#bddaec" stroke="#bddaec" stroke-width="1.51"/><path d="M807,-138L461,-117L688,-124Z" fill="#b7d5eb" stroke="#b7d5eb" stroke-width="1.51"/><path d="M771,829L867,920L912,781Z" fill="#3b7fbb" stroke="#3b7fbb" stroke-width="1.51"/><path d="M673,940L771,829L656,801Z" fill="#4b86bf" stroke="#4b86bf" stroke-width="1.51"/><path d="M557,901L656,801L547,807Z" fill="#5b8fc3" stroke="#5b8fc3" stroke-width="1.51"/><path d="M465,786L557,901L547,807Z" fill="#6393c5" stroke="#6393c5" stroke-width="1.51"/><path d="M412,900L557,901L465,786Z" fill="#6692c4" stroke="#6692c4" stroke-width="1.51"/><path d="M307,-115L304,-10L402,-19Z" fill="#cee1f1" stroke="#cee1f1" stroke-width="1.51"/><path d="M1271,586L1263,472L1140,586Z" fill="#3c84be" stroke="#3c84be" stroke-width="1.51"/><path d="M1261,664L1271,586L1140,586Z" fill="#327ebb" stroke="#327ebb" stroke-width="1.51"/><path d="M1015,778L1094,778L1109,692Z" fill="#2c7aba" stroke="#2c7aba" stroke-width="1.51"/><path d="M986,897L1094,778L1015,778Z" fill="#2b76b6" stroke="#2b76b6" stroke-width="1.51"/><path d="M285,669L302,810L448,677Z" fill="#7ba7d2" stroke="#7ba7d2" stroke-width="1.51"/><path d="M234,558L223,652L285,669Z" fill="#8ab4da" stroke="#8ab4da" stroke-width="1.51"/><path d="M120,583L223,652L234,558Z" fill="#8fb9dc" stroke="#8fb9dc" stroke-width="1.51"/><path d="M120,583L234,558L205,448Z" fill="#97bfe0" stroke="#97bfe0" stroke-width="1.51"/><path d="M796,916L867,920L771,829Z" fill="#3e7cb9" stroke="#3e7cb9" stroke-width="1.51"/><path d="M796,916L860,995L867,920Z" fill="#3875b2" stroke="#3875b2" stroke-width="1.51"/><path d="M557,901L673,940L656,801Z" fill="#5388be" stroke="#5388be" stroke-width="1.51"/><path d="M1321,253L1209,228L1246,358Z" fill="#6897c7" stroke="#6897c7" stroke-width="1.51"/><path d="M1321,253L1243,128L1209,228Z" fill="#749bcb" stroke="#749bcb" stroke-width="1.51"/><path d="M1209,228L1243,128L1128,129Z" fill="#7ba2d0" stroke="#7ba2d0" stroke-width="1.51"/><path d="M233,8L183,110L296,118Z" fill="#cbdef1" stroke="#cbdef1" stroke-width="1.51"/><path d="M226,217L118,358L197,359Z" fill="#b3d3e9" stroke="#b3d3e9" stroke-width="1.51"/><path d="M197,359L98,429L205,448Z" fill="#a6cbe6" stroke="#a6cbe6" stroke-width="1.51"/><path d="M74,206L118,358L226,217Z" fill="#bdd8eb" stroke="#bdd8eb" stroke-width="1.51"/><path d="M867,920L986,897L912,781Z" fill="#3378b6" stroke="#3378b6" stroke-width="1.51"/><path d="M1382,364L1321,253L1246,358Z" fill="#5f8fc3" stroke="#5f8fc3" stroke-width="1.51"/><path d="M1261,664L1140,586L1109,692Z" fill="#307ebc" stroke="#307ebc" stroke-width="1.51"/><path d="M1261,664L1109,692L1210,791Z" fill="#2775b7" stroke="#2775b7" stroke-width="1.51"/><path d="M307,-115L233,8L304,-10Z" fill="#d1e2f3" stroke="#d1e2f3" stroke-width="1.51"/><path d="M304,-10L233,8L296,118Z" fill="#ccdff1" stroke="#ccdff1" stroke-width="1.51"/><path d="M807,-138L211,-133L461,-117Z" fill="#c6dfee" stroke="#c6dfee" stroke-width="1.51"/><path d="M881,-141L1004,-161L807,-138Z" fill="#a5c6e4" stroke="#a5c6e4" stroke-width="1.51"/><path d="M1115,-114L1004,-161L995,-15Z" fill="#99bade" stroke="#99bade" stroke-width="1.51"/><path d="M1115,-114L995,-15L1107,0Z" fill="#93b5db" stroke="#93b5db" stroke-width="1.51"/><path d="M214,786L302,810L285,669Z" fill="#80a5d3" stroke="#80a5d3" stroke-width="1.51"/><path d="M557,901L643,1019L673,940Z" fill="#5080b7" stroke="#5080b7" stroke-width="1.51"/><path d="M302,810L412,900L465,786Z" fill="#7098c9" stroke="#7098c9" stroke-width="1.51"/><path d="M118,358L98,429L197,359Z" fill="#accee7" stroke="#accee7" stroke-width="1.51"/><path d="M223,652L214,786L285,669Z" fill="#85acd6" stroke="#85acd6" stroke-width="1.51"/><path d="M-6,337L98,429L118,358Z" fill="#b0d1e8" stroke="#b0d1e8" stroke-width="1.51"/><path d="M1366,437L1246,358L1263,472Z" fill="#4e89c0" stroke="#4e89c0" stroke-width="1.51"/><path d="M1210,791L1109,692L1094,778Z" fill="#2775b7" stroke="#2775b7" stroke-width="1.51"/><path d="M1378,553L1366,437L1263,472Z" fill="#4280bb" stroke="#4280bb" stroke-width="1.51"/><path d="M1215,-30L1115,-114L1107,0Z" fill="#90afd8" stroke="#90afd8" stroke-width="1.51"/><path d="M1215,-30L1128,129L1243,128Z" fill="#84a6d3" stroke="#84a6d3" stroke-width="1.51"/><path d="M211,-133L307,-115L461,-117Z" fill="#d4e5f4" stroke="#d4e5f4" stroke-width="1.51"/><path d="M461,-117L307,-115L402,-19Z" fill="#cce1f0" stroke="#cce1f0" stroke-width="1.51"/><path d="M98,429L120,583L205,448Z" fill="#9dc5e3" stroke="#9dc5e3" stroke-width="1.51"/><path d="M1349,22L1215,-30L1243,128Z" fill="#84a2cf" stroke="#84a2cf" stroke-width="1.51"/><path d="M776,1024L796,916L673,940Z" fill="#4179b2" stroke="#4179b2" stroke-width="1.51"/><path d="M776,1024L860,995L796,916Z" fill="#3a73ad" stroke="#3a73ad" stroke-width="1.51"/><path d="M867,920L860,995L986,897Z" fill="#3172b0" stroke="#3172b0" stroke-width="1.51"/><path d="M302,810L327,925L412,900Z" fill="#7295c6" stroke="#7295c6" stroke-width="1.51"/><path d="M53,655L214,786L223,652Z" fill="#89afd7" stroke="#89afd7" stroke-width="1.51"/><path d="M1156,916L1094,778L986,897Z" fill="#256eb1" stroke="#256eb1" stroke-width="1.51"/><path d="M1156,916L1210,791L1094,778Z" fill="#206cb1" stroke="#206cb1" stroke-width="1.51"/><path d="M556,1055L643,1019L557,901Z" fill="#547eb1" stroke="#547eb1" stroke-width="1.51"/><path d="M1326,657L1271,586L1261,664Z" fill="#2d77b6" stroke="#2d77b6" stroke-width="1.51"/><path d="M1378,553L1263,472L1271,586Z" fill="#3c7eba" stroke="#3c7eba" stroke-width="1.51"/><path d="M643,1019L776,1024L673,940Z" fill="#4577ae" stroke="#4577ae" stroke-width="1.51"/><path d="M113,74L183,110L113,22Z" fill="#d2e2f3" stroke="#d2e2f3" stroke-width="1.51"/><path d="M113,74L74,206L183,110Z" fill="#cddff1" stroke="#cddff1" stroke-width="1.51"/><path d="M183,110L74,206L226,217Z" fill="#c6dcee" stroke="#c6dcee" stroke-width="1.51"/><path d="M113,22L183,110L233,8Z" fill="#d1e2f3" stroke="#d1e2f3" stroke-width="1.51"/><path d="M1321,253L1338,107L1243,128Z" fill="#7899ca" stroke="#7899ca" stroke-width="1.51"/><path d="M1366,437L1382,364L1246,358Z" fill="#5489bf" stroke="#5489bf" stroke-width="1.51"/><path d="M1483,205L1338,107L1321,253Z" fill="#7192c4" stroke="#7192c4" stroke-width="1.51"/><path d="M1319,788L1326,657L1261,664Z" fill="#256fb2" stroke="#256fb2" stroke-width="1.51"/><path d="M1491,467L1454,340L1382,364Z" fill="#5080b7" stroke="#5080b7" stroke-width="1.51"/><path d="M412,900L409,992L557,901Z" fill="#658bbe" stroke="#658bbe" stroke-width="1.51"/><path d="M184,890L327,925L302,810Z" fill="#7998c9" stroke="#7998c9" stroke-width="1.51"/><path d="M1388,-95L1205,-108L1215,-30Z" fill="#8ea7d2" stroke="#8ea7d2" stroke-width="1.51"/><path d="M1215,-30L1205,-108L1115,-114Z" fill="#91aed8" stroke="#91aed8" stroke-width="1.51"/><path d="M1115,-114L1205,-108L1004,-161Z" fill="#98b6db" stroke="#98b6db" stroke-width="1.51"/><path d="M1326,657L1378,553L1271,586Z" fill="#3178b6" stroke="#3178b6" stroke-width="1.51"/><path d="M211,-133L113,22L233,8Z" fill="#d7e6f5" stroke="#d7e6f5" stroke-width="1.51"/><path d="M-51,88L-29,230L74,206Z" fill="#cfe2f1" stroke="#cfe2f1" stroke-width="1.51"/><path d="M327,925L409,992L412,900Z" fill="#6c8dbf" stroke="#6c8dbf" stroke-width="1.51"/><path d="M1036,1044L986,897L860,995Z" fill="#2a6aa8" stroke="#2a6aa8" stroke-width="1.51"/><path d="M1104,1039L1156,916L986,897Z" fill="#2165a8" stroke="#2165a8" stroke-width="1.51"/><path d="M1210,791L1319,788L1261,664Z" fill="#206db1" stroke="#206db1" stroke-width="1.51"/><path d="M409,992L556,1055L557,901Z" fill="#5d83b5" stroke="#5d83b5" stroke-width="1.51"/><path d="M643,1019L556,1055L776,1024Z" fill="#4975a9" stroke="#4975a9" stroke-width="1.51"/><path d="M307,-115L211,-133L233,8Z" fill="#d7e6f5" stroke="#d7e6f5" stroke-width="1.51"/><path d="M1004,-161L211,-133L807,-138Z" fill="#b6d5eb" stroke="#b6d5eb" stroke-width="1.51"/><path d="M74,206L-6,337L118,358Z" fill="#bcd8eb" stroke="#bcd8eb" stroke-width="1.51"/><path d="M-2,540L53,655L120,583Z" fill="#97bedf" stroke="#97bedf" stroke-width="1.51"/><path d="M120,583L53,655L223,652Z" fill="#90b7dc" stroke="#90b7dc" stroke-width="1.51"/><path d="M-29,230L-6,337L74,206Z" fill="#c4ddee" stroke="#c4ddee" stroke-width="1.51"/><path d="M214,786L184,890L302,810Z" fill="#7e9ecd" stroke="#7e9ecd" stroke-width="1.51"/><path d="M-2,540L120,583L98,429Z" fill="#9fc4e3" stroke="#9fc4e3" stroke-width="1.51"/><path d="M1338,107L1349,22L1243,128Z" fill="#7f9dcc" stroke="#7f9dcc" stroke-width="1.51"/><path d="M1489,70L1349,22L1338,107Z" fill="#7e97c8" stroke="#7e97c8" stroke-width="1.51"/><path d="M-40,453L-2,540L98,429Z" fill="#a6cbe6" stroke="#a6cbe6" stroke-width="1.51"/><path d="M1253,895L1319,788L1210,791Z" fill="#1a66ac" stroke="#1a66ac" stroke-width="1.51"/><path d="M1483,575L1491,467L1378,553Z" fill="#3874b0" stroke="#3874b0" stroke-width="1.51"/><path d="M1382,364L1454,340L1321,253Z" fill="#5f8abf" stroke="#5f8abf" stroke-width="1.51"/><path d="M1491,467L1382,364L1366,437Z" fill="#4b80ba" stroke="#4b80ba" stroke-width="1.51"/><path d="M1491,467L1366,437L1378,553Z" fill="#407bb7" stroke="#407bb7" stroke-width="1.51"/><path d="M83,823L184,890L214,786Z" fill="#82a0ce" stroke="#82a0ce" stroke-width="1.51"/><path d="M327,925L284,1044L409,992Z" fill="#6d89b8" stroke="#6d89b8" stroke-width="1.51"/><path d="M776,1024L1036,1044L860,995Z" fill="#3169a3" stroke="#3169a3" stroke-width="1.51"/><path d="M1156,916L1253,895L1210,791Z" fill="#1a65ab" stroke="#1a65ab" stroke-width="1.51"/><path d="M556,1055L1036,1044L776,1024Z" fill="#3b6da4" stroke="#3b6da4" stroke-width="1.51"/><path d="M1269,1019L1253,895L1156,916Z" fill="#145ca3" stroke="#145ca3" stroke-width="1.51"/><path d="M-6,337L-40,453L98,429Z" fill="#aed1e8" stroke="#aed1e8" stroke-width="1.51"/><path d="M-51,88L74,206L113,74Z" fill="#d2e3f3" stroke="#d2e3f3" stroke-width="1.51"/><path d="M-51,88L113,74L113,22Z" fill="#d6e5f5" stroke="#d6e5f5" stroke-width="1.51"/><path d="M-114,447L-40,453L-6,337Z" fill="#b2d3ea" stroke="#b2d3ea" stroke-width="1.51"/><path d="M1036,1044L1104,1039L986,897Z" fill="#2463a3" stroke="#2463a3" stroke-width="1.51"/><path d="M53,655L83,823L214,786Z" fill="#88aad5" stroke="#88aad5" stroke-width="1.51"/><path d="M-6,692L83,823L53,655Z" fill="#8eb0d8" stroke="#8eb0d8" stroke-width="1.51"/><path d="M-6,692L53,655L-2,540Z" fill="#97bcde" stroke="#97bcde" stroke-width="1.51"/><path d="M211,-133L109,-132L113,22Z" fill="#ddeaf7" stroke="#ddeaf7" stroke-width="1.51"/><path d="M-5,-149L109,-132L211,-133Z" fill="#e3eef8" stroke="#e3eef8" stroke-width="1.51"/><path d="M1450,665L1378,553L1326,657Z" fill="#2b71b1" stroke="#2b71b1" stroke-width="1.51"/><path d="M1454,340L1483,205L1321,253Z" fill="#668cbe" stroke="#668cbe" stroke-width="1.51"/><path d="M1598,340L1483,205L1454,340Z" fill="#5e82b3" stroke="#5e82b3" stroke-width="1.51"/><path d="M-119,557L-6,692L-2,540Z" fill="#9dc1e0" stroke="#9dc1e0" stroke-width="1.51"/><path d="M1319,788L1450,665L1326,657Z" fill="#226aae" stroke="#226aae" stroke-width="1.51"/><path d="M1502,828L1450,665L1319,788Z" fill="#1860a7" stroke="#1860a7" stroke-width="1.51"/><path d="M1450,665L1483,575L1378,553Z" fill="#2e70ae" stroke="#2e70ae" stroke-width="1.51"/><path d="M172,1049L284,1044L184,890Z" fill="#768cbb" stroke="#768cbb" stroke-width="1.51"/><path d="M184,890L284,1044L327,925Z" fill="#768fc1" stroke="#768fc1" stroke-width="1.51"/><path d="M409,992L284,1044L556,1055Z" fill="#6481af" stroke="#6481af" stroke-width="1.51"/><path d="M1269,1019L1327,885L1253,895Z" fill="#1159a2" stroke="#1159a2" stroke-width="1.51"/><path d="M1253,895L1327,885L1319,788Z" fill="#165fa7" stroke="#165fa7" stroke-width="1.51"/><path d="M83,823L94,892L184,890Z" fill="#829dcc" stroke="#829dcc" stroke-width="1.51"/><path d="M-19,942L94,892L83,823Z" fill="#859dcc" stroke="#859dcc" stroke-width="1.51"/><path d="M-162,366L-114,447L-6,337Z" fill="#b8d7eb" stroke="#b8d7eb" stroke-width="1.51"/><path d="M-40,-11L-51,88L113,22Z" fill="#dbe8f6" stroke="#dbe8f6" stroke-width="1.51"/><path d="M1349,22L1388,-95L1215,-30Z" fill="#88a2ce" stroke="#88a2ce" stroke-width="1.51"/><path d="M1205,-108L1476,-127L1004,-161Z" fill="#94add6" stroke="#94add6" stroke-width="1.51"/><path d="M1494,-26L1388,-95L1349,22Z" fill="#859ac9" stroke="#859ac9" stroke-width="1.51"/><path d="M-40,453L-119,557L-2,540Z" fill="#a5c9e5" stroke="#a5c9e5" stroke-width="1.51"/><path d="M-162,366L-6,337L-29,230Z" fill="#c1dced" stroke="#c1dced" stroke-width="1.51"/><path d="M1483,205L1489,70L1338,107Z" fill="#7791c2" stroke="#7791c2" stroke-width="1.51"/><path d="M1586,110L1489,70L1483,205Z" fill="#748ab9" stroke="#748ab9" stroke-width="1.51"/><path d="M109,-132L-40,-11L113,22Z" fill="#deebf7" stroke="#deebf7" stroke-width="1.51"/><path d="M-130,133L-134,199L-29,230Z" fill="#d3e4f3" stroke="#d3e4f3" stroke-width="1.51"/><path d="M-114,447L-119,557L-40,453Z" fill="#abcde7" stroke="#abcde7" stroke-width="1.51"/><path d="M-6,692L-53,801L83,823Z" fill="#8dacd6" stroke="#8dacd6" stroke-width="1.51"/><path d="M1327,885L1502,828L1319,788Z" fill="#145ca4" stroke="#145ca4" stroke-width="1.51"/><path d="M1104,1039L1269,1019L1156,916Z" fill="#175a9e" stroke="#175a9e" stroke-width="1.51"/><path d="M-130,133L-29,230L-51,88Z" fill="#d6e5f4" stroke="#d6e5f4" stroke-width="1.51"/><path d="M-114,447L-162,366L-119,557Z" fill="#b0d1e9" stroke="#b0d1e9" stroke-width="1.51"/><path d="M111,1013L184,890L94,892Z" fill="#7f96c7" stroke="#7f96c7" stroke-width="1.51"/><path d="M111,1013L172,1049L184,890Z" fill="#7a8ebd" stroke="#7a8ebd" stroke-width="1.51"/><path d="M284,1044L172,1049L556,1055Z" fill="#6a81ae" stroke="#6a81ae" stroke-width="1.51"/><path d="M1562,-5L1494,-26L1489,70Z" fill="#7d90bd" stroke="#7d90bd" stroke-width="1.51"/><path d="M1489,70L1494,-26L1349,22Z" fill="#7f95c5" stroke="#7f95c5" stroke-width="1.51"/><path d="M-134,199L-162,366L-29,230Z" fill="#c9e0ef" stroke="#c9e0ef" stroke-width="1.51"/><path d="M-134,199L-155,-20L-162,366Z" fill="#d6e6f4" stroke="#d6e6f4" stroke-width="1.51"/><path d="M-155,-20L-130,133L-51,88Z" fill="#dfebf7" stroke="#dfebf7" stroke-width="1.51"/><path d="M-129,675L-53,801L-6,692Z" fill="#95b3da" stroke="#95b3da" stroke-width="1.51"/><path d="M-19,942L111,1013L94,892Z" fill="#8196c5" stroke="#8196c5" stroke-width="1.51"/><path d="M-40,-11L-155,-20L-51,88Z" fill="#e1edf8" stroke="#e1edf8" stroke-width="1.51"/><path d="M109,-132L-5,-149L-40,-11Z" fill="#e4eff9" stroke="#e4eff9" stroke-width="1.51"/><path d="M1004,-161L-5,-149L211,-133Z" fill="#cfe3f1" stroke="#cfe3f1" stroke-width="1.51"/><path d="M1491,467L1598,340L1454,340Z" fill="#4f7bb0" stroke="#4f7bb0" stroke-width="1.51"/><path d="M1615,434L1598,340L1491,467Z" fill="#4874a9" stroke="#4874a9" stroke-width="1.51"/><path d="M1615,434L1491,467L1613,591Z" fill="#3b6ea4" stroke="#3b6ea4" stroke-width="1.51"/><path d="M-119,557L-129,675L-6,692Z" fill="#9bbedf" stroke="#9bbedf" stroke-width="1.51"/><path d="M-162,366L-129,675L-119,557Z" fill="#a9cae6" stroke="#a9cae6" stroke-width="1.51"/><path d="M1598,340L1599,216L1483,205Z" fill="#6280af" stroke="#6280af" stroke-width="1.51"/><path d="M1613,591L1491,467L1483,575Z" fill="#356da7" stroke="#356da7" stroke-width="1.51"/><path d="M1598,340L1615,434L1599,216Z" fill="#5578a7" stroke="#5578a7" stroke-width="1.51"/><path d="M1613,591L1483,575L1592,684Z" fill="#29649f" stroke="#29649f" stroke-width="1.51"/><path d="M1494,-26L1476,-127L1388,-95Z" fill="#8799c6" stroke="#8799c6" stroke-width="1.51"/><path d="M1388,-95L1476,-127L1205,-108Z" fill="#8da2ce" stroke="#8da2ce" stroke-width="1.51"/><path d="M1564,-143L1476,-127L1494,-26Z" fill="#8695c0" stroke="#8695c0" stroke-width="1.51"/><path d="M1599,216L1586,110L1483,205Z" fill="#6c85b3" stroke="#6c85b3" stroke-width="1.51"/><path d="M1458,925L1502,828L1327,885Z" fill="#0d549d" stroke="#0d549d" stroke-width="1.51"/><path d="M1269,1019L1355,1029L1327,885Z" fill="#0f5298" stroke="#0f5298" stroke-width="1.51"/><path d="M1104,1039L1355,1029L1269,1019Z" fill="#135195" stroke="#135195" stroke-width="1.51"/><path d="M1036,1044L1355,1029L1104,1039Z" fill="#185597" stroke="#185597" stroke-width="1.51"/><path d="M1586,110L1562,-5L1489,70Z" fill="#788bb8" stroke="#788bb8" stroke-width="1.51"/><path d="M1592,684L1483,575L1450,665Z" fill="#2766a4" stroke="#2766a4" stroke-width="1.51"/><path d="M1574,780L1592,684L1450,665Z" fill="#1f5d9d" stroke="#1f5d9d" stroke-width="1.51"/><path d="M1355,1029L1458,925L1327,885Z" fill="#0b509a" stroke="#0b509a" stroke-width="1.51"/><path d="M-53,801L-19,942L83,823Z" fill="#8aa3cf" stroke="#8aa3cf" stroke-width="1.51"/><path d="M111,1013L5,1023L172,1049Z" fill="#7b8bb7" stroke="#7b8bb7" stroke-width="1.51"/><path d="M-123,814L-19,942L-53,801Z" fill="#8da5d0" stroke="#8da5d0" stroke-width="1.51"/><path d="M1574,780L1450,665L1502,828Z" fill="#185b9e" stroke="#185b9e" stroke-width="1.51"/><path d="M-143,941L-123,814L-129,675Z" fill="#93acd6" stroke="#93acd6" stroke-width="1.51"/><path d="M-129,675L-123,814L-53,801Z" fill="#94b0d9" stroke="#94b0d9" stroke-width="1.51"/><path d="M-154,-103L-155,-20L-40,-11Z" fill="#e8f1fa" stroke="#e8f1fa" stroke-width="1.51"/><path d="M-130,133L-155,-20L-134,199Z" fill="#ddeaf7" stroke="#ddeaf7" stroke-width="1.51"/><path d="M1617,881L1574,780L1502,828Z" fill="#124f93" stroke="#124f93" stroke-width="1.51"/><path d="M1592,684L1617,881L1613,591Z" fill="#1d5795" stroke="#1d5795" stroke-width="1.51"/><path d="M-130,1056L5,1023L-19,942Z" fill="#8393bd" stroke="#8393bd" stroke-width="1.51"/><path d="M-19,942L5,1023L111,1013Z" fill="#8092be" stroke="#8092be" stroke-width="1.51"/><path d="M1458,925L1617,881L1502,828Z" fill="#0e4d93" stroke="#0e4d93" stroke-width="1.51"/><path d="M1355,1029L1450,1004L1458,925Z" fill="#094a91" stroke="#094a91" stroke-width="1.51"/><path d="M-5,-149L-154,-103L-40,-11Z" fill="#e8f2fa" stroke="#e8f2fa" stroke-width="1.51"/><path d="M-155,-20L-154,-103L-162,366Z" fill="#e0ecf8" stroke="#e0ecf8" stroke-width="1.51"/><path d="M1562,-5L1564,-143L1494,-26Z" fill="#8190bc" stroke="#8190bc" stroke-width="1.51"/><path d="M1476,-127L1564,-143L1004,-161Z" fill="#91a4d0" stroke="#91a4d0" stroke-width="1.51"/><path d="M1586,110L1564,-143L1562,-5Z" fill="#7d8cb7" stroke="#7d8cb7" stroke-width="1.51"/><path d="M1599,216L1564,-143L1586,110Z" fill="#7688b4" stroke="#7688b4" stroke-width="1.51"/><path d="M-123,814L-143,941L-19,942Z" fill="#8da1cd" stroke="#8da1cd" stroke-width="1.51"/><path d="M-162,366L-143,941L-129,675Z" fill="#9ebddf" stroke="#9ebddf" stroke-width="1.51"/><path d="M1618,1000L1617,881L1458,925Z" fill="#09458a" stroke="#09458a" stroke-width="1.51"/><path d="M1574,780L1617,881L1592,684Z" fill="#155293" stroke="#155293" stroke-width="1.51"/><path d="M1613,591L1617,881L1615,434Z" fill="#265e99" stroke="#265e99" stroke-width="1.51"/><path d="M-143,941L-130,1056L-19,942Z" fill="#8897c2" stroke="#8897c2" stroke-width="1.51"/><path d="M5,1023L-130,1056L172,1049Z" fill="#7e8cb6" stroke="#7e8cb6" stroke-width="1.51"/><path d="M172,1049L-130,1056L556,1055Z" fill="#7385b1" stroke="#7385b1" stroke-width="1.51"/><path d="M1450,1004L1618,1000L1458,925Z" fill="#094489" stroke="#094489" stroke-width="1.51"/><path d="M1617,881L1618,1000L1615,434Z" fill="#155191" stroke="#155191" stroke-width="1.51"/><path d="M1355,1029L1618,1000L1450,1004Z" fill="#094387" stroke="#094387" stroke-width="1.51"/></svg>